ffmpeg version 2021-10-14-git-c336c7a9d7-essentials_build-www.gyan.dev Copyright (c) 2000-2021 the FFmpeg developers
  built with gcc 10.3.0 (Rev5, Built by MSYS2 project)
  configuration: --enable-gpl --enable-version3 --enable-static --disable-w32threads --disable-autodetect --enable-fontconfig --enable-iconv --enable-gnutls --enable-libxml2 --enable-gmp --enable-lzma --enable-zlib --enable-libsrt --enable-libssh --enable-libzmq --enable-avisynth --enable-sdl2 --enable-libwebp --enable-libx264 --enable-libx265 --enable-libxvid --enable-libaom --enable-libopenjpeg --enable-libvpx --enable-libass --enable-libfreetype --enable-libfribidi --enable-libvidstab --enable-libvmaf --enable-libzimg --enable-amf --enable-cuda-llvm --enable-cuvid --enable-ffnvcodec --enable-nvdec --enable-nvenc --enable-d3d11va --enable-dxva2 --enable-libmfx --enable-libgme --enable-libopenmpt --enable-libopencore-amrwb --enable-libmp3lame --enable-libtheora --enable-libvo-amrwbenc --enable-libgsm --enable-libopencore-amrnb --enable-libopus --enable-libspeex --enable-libvorbis --enable-librubberband
  libavutil      57.  7.100 / 57.  7.100
  libavcodec     59. 12.100 / 59. 12.100
  libavformat    59.  6.100 / 59.  6.100
  libavdevice    59.  0.101 / 59.  0.101
  libavfilter     8. 14.100 /  8. 14.100
  libswscale      6.  1.100 /  6.  1.100
  libswresample   4.  0.100 /  4.  0.100
  libpostproc    56.  0.100 / 56.  0.100
Splitting the commandline.
Reading option '-v' ... matched as option 'v' (set logging level) with argument 'debug'.
Reading option '-nostdin' ... matched as option 'stdin' (enable or disable interaction on standard input) with argument 0.
Reading option '-progress' ... matched as option 'progress' (write program-readable progress information) with argument 'C:/Users/LD/AppData/Local/Temp/KritaFFmpegProgress.xTJAQp'.
Reading option '-r' ... matched as option 'r' (set frame rate (Hz value, fraction or abbreviation)) with argument '24'.
Reading option '-start_number' ... matched as AVOption 'start_number' with argument '0'.
Reading option '-i' ... matched as input url with argument 'C:/Users/LD/Pictures/cubariaa - Copy/story/prologue/frame%04d.png'.
Reading option '-vf' ... matched as option 'vf' (set video filters) with argument 'palettegen'.
Reading option '-y' ... matched as option 'y' (overwrite output files) with argument '1'.
Reading option 'C:/Users/LD/Pictures/cubariaa - Copy/story/prologue/palette.png' ... matched as output url.
Finished splitting the commandline.
Parsing a group of options: global .
Applying option v (set logging level) with argument debug.
Applying option nostdin (enable or disable interaction on standard input) with argument 0.
Applying option progress (write program-readable progress information) with argument C:/Users/LD/AppData/Local/Temp/KritaFFmpegProgress.xTJAQp.
[file @ 0000025624a7ba40] Setting default whitelist 'file,crypto,data'
Applying option y (overwrite output files) with argument 1.
Successfully parsed a group of options.
Parsing a group of options: input url C:/Users/LD/Pictures/cubariaa - Copy/story/prologue/frame%04d.png.
Applying option r (set frame rate (Hz value, fraction or abbreviation)) with argument 24.
Successfully parsed a group of options.
Opening an input file: C:/Users/LD/Pictures/cubariaa - Copy/story/prologue/frame%04d.png.
[image2 @ 0000025624abbf00] Opening 'C:/Users/LD/Pictures/cubariaa - Copy/story/prologue/frame0000.png' for reading
[file @ 0000025624abf140] Setting default whitelist 'file,crypto,data'
[AVIOContext @ 0000025624ac7280] Statistics: 12121 bytes read, 0 seeks
[image2 @ 0000025624abbf00] Opening 'C:/Users/LD/Pictures/cubariaa - Copy/story/prologue/frame0001.png' for reading
[file @ 0000025624abf200] Setting default whitelist 'file,crypto,data'
[AVIOContext @ 0000025624abf300] Statistics: 11883 bytes read, 0 seeks
[image2 @ 0000025624abbf00] Opening 'C:/Users/LD/Pictures/cubariaa - Copy/story/prologue/frame0002.png' for reading
[file @ 0000025624abf2c0] Setting default whitelist 'file,crypto,data'
[AVIOContext @ 0000025624abf4c0] Statistics: 11818 bytes read, 0 seeks
[image2 @ 0000025624abbf00] Opening 'C:/Users/LD/Pictures/cubariaa - Copy/story/prologue/frame0003.png' for reading
[file @ 0000025624abf4c0] Setting default whitelist 'file,crypto,data'
[AVIOContext @ 0000025624abf680] Statistics: 11890 bytes read, 0 seeks
[image2 @ 0000025624abbf00] Opening 'C:/Users/LD/Pictures/cubariaa - Copy/story/prologue/frame0004.png' for reading
[file @ 0000025624abf680] Setting default whitelist 'file,crypto,data'
[AVIOContext @ 0000025624abf8c0] Statistics: 11877 bytes read, 0 seeks
[image2 @ 0000025624abbf00] Opening 'C:/Users/LD/Pictures/cubariaa - Copy/story/prologue/frame0005.png' for reading
[file @ 0000025624abf8c0] Setting default whitelist 'file,crypto,data'
[AVIOContext @ 0000025624abfa80] Statistics: 11788 bytes read, 0 seeks
[image2 @ 0000025624abbf00] Opening 'C:/Users/LD/Pictures/cubariaa - Copy/story/prologue/frame0006.png' for reading
[file @ 0000025624abfa80] Setting default whitelist 'file,crypto,data'
[AVIOContext @ 0000025624abfc40] Statistics: 11905 bytes read, 0 seeks
[image2 @ 0000025624abbf00] Opening 'C:/Users/LD/Pictures/cubariaa - Copy/story/prologue/frame0007.png' for reading
[file @ 0000025624abfc40] Setting default whitelist 'file,crypto,data'
[AVIOContext @ 0000025624abfd40] Statistics: 11986 bytes read, 0 seeks
[image2 @ 0000025624abbf00] Opening 'C:/Users/LD/Pictures/cubariaa - Copy/story/prologue/frame0008.png' for reading
[file @ 0000025624ac0c40] Setting default whitelist 'file,crypto,data'
[AVIOContext @ 0000025624ac0d40] Statistics: 11852 bytes read, 0 seeks
[image2 @ 0000025624abbf00] Opening 'C:/Users/LD/Pictures/cubariaa - Copy/story/prologue/frame0009.png' for reading
[file @ 0000025624ac0c40] Setting default whitelist 'file,crypto,data'
[AVIOContext @ 0000025624ac0d40] Statistics: 11871 bytes read, 0 seeks
[image2 @ 0000025624abbf00] Opening 'C:/Users/LD/Pictures/cubariaa - Copy/story/prologue/frame0010.png' for reading
[file @ 0000025624ac0c40] Setting default whitelist 'file,crypto,data'
[AVIOContext @ 0000025624ac0d40] Statistics: 11895 bytes read, 0 seeks
[image2 @ 0000025624abbf00] Opening 'C:/Users/LD/Pictures/cubariaa - Copy/story/prologue/frame0011.png' for reading
[file @ 0000025624ac0c40] Setting default whitelist 'file,crypto,data'
[AVIOContext @ 0000025624ac0d40] Statistics: 11932 bytes read, 0 seeks
[image2 @ 0000025624abbf00] Opening 'C:/Users/LD/Pictures/cubariaa - Copy/story/prologue/frame0012.png' for reading
[file @ 0000025624ac0c40] Setting default whitelist 'file,crypto,data'
[AVIOContext @ 0000025624ac0d40] Statistics: 11949 bytes read, 0 seeks
[image2 @ 0000025624abbf00] Opening 'C:/Users/LD/Pictures/cubariaa - Copy/story/prologue/frame0013.png' for reading
[file @ 0000025624ac0c40] Setting default whitelist 'file,crypto,data'
[AVIOContext @ 0000025624ac0d40] Statistics: 11935 bytes read, 0 seeks
[image2 @ 0000025624abbf00] Opening 'C:/Users/LD/Pictures/cubariaa - Copy/story/prologue/frame0014.png' for reading
[file @ 0000025624ac0c40] Setting default whitelist 'file,crypto,data'
[AVIOContext @ 0000025624ac0d40] Statistics: 11977 bytes read, 0 seeks
[image2 @ 0000025624abbf00] Opening 'C:/Users/LD/Pictures/cubariaa - Copy/story/prologue/frame0015.png' for reading
[file @ 0000025624ac0c40] Setting default whitelist 'file,crypto,data'
[AVIOContext @ 0000025624ac0d40] Statistics: 11958 bytes read, 0 seeks
[image2 @ 0000025624abbf00] Opening 'C:/Users/LD/Pictures/cubariaa - Copy/story/prologue/frame0016.png' for reading
[file @ 0000025624ac0c40] Setting default whitelist 'file,crypto,data'
[AVIOContext @ 0000025624ac0d40] Statistics: 11936 bytes read, 0 seeks
[image2 @ 0000025624abbf00] Opening 'C:/Users/LD/Pictures/cubariaa - Copy/story/prologue/frame0017.png' for reading
[file @ 0000025624ac0c40] Setting default whitelist 'file,crypto,data'
[AVIOContext @ 0000025624ac0d40] Statistics: 11901 bytes read, 0 seeks
[image2 @ 0000025624abbf00] Opening 'C:/Users/LD/Pictures/cubariaa - Copy/story/prologue/frame0018.png' for reading
[file @ 0000025624ac0c40] Setting default whitelist 'file,crypto,data'
[AVIOContext @ 0000025624ac0d40] Statistics: 11866 bytes read, 0 seeks
[image2 @ 0000025624abbf00] Opening 'C:/Users/LD/Pictures/cubariaa - Copy/story/prologue/frame0019.png' for reading
[file @ 0000025624ac0c40] Setting default whitelist 'file,crypto,data'
[AVIOContext @ 0000025624ac0d40] Statistics: 11813 bytes read, 0 seeks
[image2 @ 0000025624abbf00] Opening 'C:/Users/LD/Pictures/cubariaa - Copy/story/prologue/frame0020.png' for reading
[file @ 0000025624ac0c40] Setting default whitelist 'file,crypto,data'
[AVIOContext @ 0000025624ac0d40] Statistics: 11813 bytes read, 0 seeks
Input #0, image2, from 'C:/Users/LD/Pictures/cubariaa - Copy/story/prologue/frame%04d.png':
  Duration: 00:00:00.84, start: 0.000000, bitrate: N/A
  Stream #0:0, 21, 1/25: Video: png, 1 reference frame, rgba(pc), 500x500 [SAR 3937:3937 DAR 1:1], 0/1, 25 fps, 25 tbr, 25 tbn
Successfully opened the file.
Parsing a group of options: output url C:/Users/LD/Pictures/cubariaa - Copy/story/prologue/palette.png.
Applying option vf (set video filters) with argument palettegen.
Successfully parsed a group of options.
Opening an output file: C:/Users/LD/Pictures/cubariaa - Copy/story/prologue/palette.png.
Successfully opened the file.
detected 12 logical cores
Stream mapping:
  Stream #0:0 -> #0:0 (png (native) -> png (native))
cur_dts is invalid st:0 (0) [init:0 i_done:0 finish:0] (this is harmless if it occurs once at the start per stream)
    Last message repeated 12 times
[graph 0 input from stream 0:0 @ 0000025624b62300] Setting 'video_size' to value '500x500'
[graph 0 input from stream 0:0 @ 0000025624b62300] Setting 'pix_fmt' to value '26'
[graph 0 input from stream 0:0 @ 0000025624b62300] Setting 'time_base' to value '1/24'
[graph 0 input from stream 0:0 @ 0000025624b62300] Setting 'pixel_aspect' to value '3937/3937'
[graph 0 input from stream 0:0 @ 0000025624b62300] Setting 'frame_rate' to value '24/1'
[graph 0 input from stream 0:0 @ 0000025624b62300] w:500 h:500 pixfmt:rgba tb:1/24 fr:24/1 sar:3937/3937
[format @ 0000025624b62800] Setting 'pix_fmts' to value 'rgb24|rgba|rgb48be|rgba64be|pal8|gray|ya8|gray16be|ya16be|monob'
[auto_scale_0 @ 0000025624b63000] w:iw h:ih flags:'' interl:0
[Parsed_palettegen_0 @ 0000025624b63f00] auto-inserting filter 'auto_scale_0' between the filter 'graph 0 input from stream 0:0' and the filter 'Parsed_palettegen_0'
[auto_scale_1 @ 0000025624b63100] w:iw h:ih flags:'' interl:0
[format @ 0000025624b62800] auto-inserting filter 'auto_scale_1' between the filter 'Parsed_palettegen_0' and the filter 'format'
[AVFilterGraph @ 0000025624abf600] query_formats: 4 queried, 3 merged, 2 already done, 0 delayed
[auto_scale_1 @ 0000025624b63100] picking rgba out of 10 ref:bgra alpha:1
[swscaler @ 0000025624c94400] [swscaler @ 0000025624ca13c0] Forcing full internal H chroma due to input having non subsampled chroma
[swscaler @ 0000025624c94400] [swscaler @ 0000025624cb80c0] Forcing full internal H chroma due to input having non subsampled chroma
[swscaler @ 0000025624c94400] [swscaler @ 0000025624cd3080] Forcing full internal H chroma due to input having non subsampled chroma
[swscaler @ 0000025624c94400] [swscaler @ 0000025624cf7080] Forcing full internal H chroma due to input having non subsampled chroma
[swscaler @ 0000025624c94400] [swscaler @ 0000025624d1a0c0] Forcing full internal H chroma due to input having non subsampled chroma
[swscaler @ 0000025624c94400] [swscaler @ 0000025624d32fc0] Forcing full internal H chroma due to input having non subsampled chroma
[swscaler @ 0000025624c94400] [swscaler @ 000002562513cec0] Forcing full internal H chroma due to input having non subsampled chroma
[swscaler @ 0000025624c94400] [swscaler @ 0000025625928e80] Forcing full internal H chroma due to input having non subsampled chroma
[swscaler @ 0000025624c94400] [swscaler @ 000002562593dbc0] Forcing full internal H chroma due to input having non subsampled chroma
[swscaler @ 0000025624c94400] [swscaler @ 0000025624b38940] Forcing full internal H chroma due to input having non subsampled chroma
[swscaler @ 0000025624c94400] [swscaler @ 00000256269669c0] Forcing full internal H chroma due to input having non subsampled chroma
[swscaler @ 0000025624c94400] [swscaler @ 0000025626979a00] Forcing full internal H chroma due to input having non subsampled chroma
[swscaler @ 0000025624c94400] [swscaler @ 000002562699ca00] Forcing full internal H chroma due to input having non subsampled chroma
[auto_scale_0 @ 0000025624b63000] w:500 h:500 fmt:rgba sar:3937/3937 -> w:500 h:500 fmt:bgra sar:1/1 flags:0x0
[swscaler @ 00000256269afa40] [swscaler @ 00000256269bea00] Forcing full internal H chroma due to input having non subsampled chroma
[swscaler @ 00000256269afa40] [swscaler @ 00000256269d1a40] Forcing full internal H chroma due to input having non subsampled chroma
[swscaler @ 00000256269afa40] [swscaler @ 00000256269e4a40] Forcing full internal H chroma due to input having non subsampled chroma
[swscaler @ 00000256269afa40] [swscaler @ 00000256269f7a80] Forcing full internal H chroma due to input having non subsampled chroma
[swscaler @ 00000256269afa40] [swscaler @ 0000025626a0aa80] Forcing full internal H chroma due to input having non subsampled chroma
[swscaler @ 00000256269afa40] [swscaler @ 0000025626a21ac0] Forcing full internal H chroma due to input having non subsampled chroma
[swscaler @ 00000256269afa40] [swscaler @ 0000025626a36b00] Forcing full internal H chroma due to input having non subsampled chroma
[swscaler @ 00000256269afa40] [swscaler @ 0000025626a49b00] Forcing full internal H chroma due to input having non subsampled chroma
[swscaler @ 00000256269afa40] [swscaler @ 0000025626a5cb40] Forcing full internal H chroma due to input having non subsampled chroma
[swscaler @ 00000256269afa40] [swscaler @ 0000025626a6fb40] Forcing full internal H chroma due to input having non subsampled chroma
[swscaler @ 00000256269afa40] [swscaler @ 0000025626a86b80] Forcing full internal H chroma due to input having non subsampled chroma
[swscaler @ 00000256269afa40] [swscaler @ 0000025626a99bc0] Forcing full internal H chroma due to input having non subsampled chroma
[swscaler @ 00000256269afa40] [swscaler @ 0000025626aacbc0] Forcing full internal H chroma due to input having non subsampled chroma
[auto_scale_1 @ 0000025624b63100] w:16 h:16 fmt:bgra sar:1/1 -> w:16 h:16 fmt:rgba sar:1/1 flags:0x0
cur_dts is invalid st:0 (0) [init:0 i_done:0 finish:0] (this is harmless if it occurs once at the start per stream)
    Last message repeated 20 times
[Parsed_palettegen_0 @ 0000025624b63f00] 13(+1) colors generated out of 13 colors; ratio=1.000000
cur_dts is invalid st:0 (0) [init:0 i_done:0 finish:0] (this is harmless if it occurs once at the start per stream)
Output #0, image2, to 'C:/Users/LD/Pictures/cubariaa - Copy/story/prologue/palette.png':
  Metadata:
    encoder         : Lavf59.6.100
  Stream #0:0, 0, 1/24: Video: png, 1 reference frame, rgba(pc, gbr/unknown/unknown, progressive), 16x16 (0x0) [SAR 1:1 DAR 1:1], 0/1, q=2-31, 200 kb/s, 24 fps, 24 tbn
    Metadata:
      encoder         : Lavc59.12.100 png
Clipping frame in rate conversion by 0.000008
frame=    1 fps=0.0 q=0.0 size=N/A time=00:00:00.00 bitrate=N/A speed=   0x    cur_dts is invalid st:0 (0) [init:1 i_done:0 finish:0] (this is harmless if it occurs once at the start per stream)
[out_0_0 @ 0000025624b63d00] EOF on sink link out_0_0:default.
No more output streams to write to, finishing.
[image2 @ 0000025624ad2040] Opening 'C:/Users/LD/Pictures/cubariaa - Copy/story/prologue/palette.png' for writing
[file @ 0000025624b4d5c0] Setting default whitelist 'file,crypto,data'
[AVIOContext @ 0000025624ce9900] Statistics: 0 seeks, 1 writeouts
frame=    1 fps=0.0 q=-0.0 Lsize=N/A time=00:00:00.04 bitrate=N/A speed=1.08x    
[AVIOContext @ 0000025624abbc40] Statistics: 0 seeks, 2 writeouts
video:0kB audio:0kB subtitle:0kB other streams:0kB global headers:0kB muxing overhead: unknown
Input file #0 (C:/Users/LD/Pictures/cubariaa - Copy/story/prologue/frame%04d.png):
  Input stream #0:0 (video): 21 packets read (249966 bytes); 21 frames decoded; 
  Total: 21 packets (249966 bytes) demuxed
Output file #0 (C:/Users/LD/Pictures/cubariaa - Copy/story/prologue/palette.png):
  Output stream #0:0 (video): 1 frames encoded; 1 packets muxed (158 bytes); 
  Total: 1 packets (158 bytes) muxed
21 frames successfully decoded, 0 decoding errors
